<svg width="33" height="30" viewBox="0 0 33 30" fill="none" xmlns="http://www.w3.org/2000/svg">
<path fill-rule="evenodd" clip-rule="evenodd" d="M7 14.4999C7 10.3577 10.3579 6.99988 14.5 6.99988C18.6421 6.99988 22 10.3577 22 14.4999C22 18.642 18.6421 21.9999 14.5 21.9999C10.3579 21.9999 7 18.642 7 14.4999ZM14.5 3.99988C8.70101 3.99988 4 8.70089 4 14.4999C4 20.2989 8.70101 24.9999 14.5 24.9999C17.1965 24.9999 19.6556 23.9834 21.5151 22.3127L26.6679 25.748C27.3572 26.2075 28.2885 26.0212 28.7481 25.3319C29.2076 24.6426 29.0213 23.7113 28.3321 23.2518L23.4484 19.996C24.4324 18.3973 25 16.5149 25 14.4999C25 8.70089 20.299 3.99988 14.5 3.99988Z" fill="#CCCCCC"/>
</svg>
