<svg width="111" height="56" viewBox="0 0 111 56" fill="none" xmlns="http://www.w3.org/2000/svg">
<path d="M37.471 46H25.697V25.294H37.471V28.397H29.409V33.675H36.949V36.778H29.409V42.868H37.471V46Z" fill="#D50527"/>
<path d="M37.471 46H25.697V25.294H37.471V28.397H29.409V33.675H36.949V36.778H29.409V42.868H37.471V46Z" fill="#D50527"/>
<path d="M49.9299 29.992C51.6892 29.992 53.0619 30.4463 54.0479 31.355C55.0532 32.2637 55.5559 33.733 55.5559 35.763V46H51.9019V36.488C51.9019 35.3087 51.6699 34.429 51.2059 33.849C50.7419 33.2497 50.0072 32.95 49.0019 32.95C47.5326 32.95 46.5272 33.414 45.9859 34.342C45.4446 35.2507 45.1739 36.575 45.1739 38.315V46H41.5199V30.282H44.3329L44.8549 32.341H45.0579C45.4059 31.7997 45.8312 31.355 46.3339 31.007C46.8366 30.659 47.3972 30.4077 48.0159 30.253C48.6346 30.079 49.2726 29.992 49.9299 29.992Z" fill="#D50527"/>
<path d="M49.9299 29.992C51.6892 29.992 53.0619 30.4463 54.0479 31.355C55.0532 32.2637 55.5559 33.733 55.5559 35.763V46H51.9019V36.488C51.9019 35.3087 51.6699 34.429 51.2059 33.849C50.7419 33.2497 50.0072 32.95 49.0019 32.95C47.5326 32.95 46.5272 33.414 45.9859 34.342C45.4446 35.2507 45.1739 36.575 45.1739 38.315V46H41.5199V30.282H44.3329L44.8549 32.341H45.0579C45.4059 31.7997 45.8312 31.355 46.3339 31.007C46.8366 30.659 47.3972 30.4077 48.0159 30.253C48.6346 30.079 49.2726 29.992 49.9299 29.992Z" fill="#D50527"/>
<path d="M66.4773 46.29C64.9887 46.29 63.6933 46.0097 62.5913 45.449C61.5087 44.869 60.6677 43.9893 60.0683 42.81C59.4883 41.6113 59.1983 40.084 59.1983 38.228C59.1983 36.2947 59.5173 34.7287 60.1553 33.53C60.8127 32.312 61.7117 31.4227 62.8523 30.862C63.993 30.282 65.298 29.992 66.7673 29.992C67.7533 29.992 68.633 30.0887 69.4063 30.282C70.1797 30.4753 70.837 30.7073 71.3783 30.978L70.3053 33.849C69.706 33.617 69.1067 33.4237 68.5073 33.269C67.908 33.095 67.328 33.008 66.7673 33.008C65.8973 33.008 65.1723 33.2013 64.5923 33.588C64.0317 33.9747 63.616 34.5547 63.3453 35.328C63.0747 36.082 62.9393 37.039 62.9393 38.199C62.9393 39.3203 63.0747 40.258 63.3453 41.012C63.6353 41.766 64.0607 42.3363 64.6213 42.723C65.182 43.0903 65.878 43.274 66.7093 43.274C67.5987 43.274 68.3817 43.1677 69.0583 42.955C69.735 42.7423 70.373 42.4523 70.9723 42.085V45.246C70.373 45.6133 69.7253 45.8743 69.0293 46.029C68.3527 46.203 67.502 46.29 66.4773 46.29Z" fill="#D50527"/>
<path d="M66.4773 46.29C64.9887 46.29 63.6933 46.0097 62.5913 45.449C61.5087 44.869 60.6677 43.9893 60.0683 42.81C59.4883 41.6113 59.1983 40.084 59.1983 38.228C59.1983 36.2947 59.5173 34.7287 60.1553 33.53C60.8127 32.312 61.7117 31.4227 62.8523 30.862C63.993 30.282 65.298 29.992 66.7673 29.992C67.7533 29.992 68.633 30.0887 69.4063 30.282C70.1797 30.4753 70.837 30.7073 71.3783 30.978L70.3053 33.849C69.706 33.617 69.1067 33.4237 68.5073 33.269C67.908 33.095 67.328 33.008 66.7673 33.008C65.8973 33.008 65.1723 33.2013 64.5923 33.588C64.0317 33.9747 63.616 34.5547 63.3453 35.328C63.0747 36.082 62.9393 37.039 62.9393 38.199C62.9393 39.3203 63.0747 40.258 63.3453 41.012C63.6353 41.766 64.0607 42.3363 64.6213 42.723C65.182 43.0903 65.878 43.274 66.7093 43.274C67.5987 43.274 68.3817 43.1677 69.0583 42.955C69.735 42.7423 70.373 42.4523 70.9723 42.085V45.246C70.373 45.6133 69.7253 45.8743 69.0293 46.029C68.3527 46.203 67.502 46.29 66.4773 46.29Z" fill="#D50527"/>
<path d="M80.9187 29.992C82.9487 29.992 84.4857 30.4367 85.5297 31.326C86.593 32.196 87.1247 33.5687 87.1247 35.444V46H84.5437L83.8187 43.825H83.7027C83.258 44.3857 82.794 44.8593 82.3107 45.246C81.8467 45.6133 81.3053 45.8743 80.6867 46.029C80.0873 46.203 79.3527 46.29 78.4827 46.29C77.5547 46.29 76.7137 46.116 75.9597 45.768C75.225 45.42 74.645 44.8883 74.2197 44.173C73.7943 43.4383 73.5817 42.52 73.5817 41.418C73.5817 39.794 74.1713 38.576 75.3507 37.764C76.5493 36.9327 78.357 36.4783 80.7737 36.401L83.4997 36.314V35.531C83.4997 34.5257 83.258 33.8103 82.7747 33.385C82.2913 32.9597 81.6147 32.747 80.7447 32.747C79.952 32.747 79.1883 32.863 78.4537 33.095C77.719 33.327 77.0037 33.5977 76.3077 33.907L75.1477 31.355C75.921 30.949 76.8007 30.6203 77.7867 30.369C78.792 30.1177 79.836 29.992 80.9187 29.992ZM81.5857 38.634C79.981 38.692 78.8693 38.9723 78.2507 39.475C77.632 39.9583 77.3227 40.6157 77.3227 41.447C77.3227 42.1817 77.545 42.7133 77.9897 43.042C78.4343 43.3707 79.0047 43.535 79.7007 43.535C80.764 43.535 81.663 43.2353 82.3977 42.636C83.1323 42.0173 83.4997 41.1087 83.4997 39.91V38.576L81.5857 38.634Z" fill="#D50527"/>
<path d="M80.9187 29.992C82.9487 29.992 84.4857 30.4367 85.5297 31.326C86.593 32.196 87.1247 33.5687 87.1247 35.444V46H84.5437L83.8187 43.825H83.7027C83.258 44.3857 82.794 44.8593 82.3107 45.246C81.8467 45.6133 81.3053 45.8743 80.6867 46.029C80.0873 46.203 79.3527 46.29 78.4827 46.29C77.5547 46.29 76.7137 46.116 75.9597 45.768C75.225 45.42 74.645 44.8883 74.2197 44.173C73.7943 43.4383 73.5817 42.52 73.5817 41.418C73.5817 39.794 74.1713 38.576 75.3507 37.764C76.5493 36.9327 78.357 36.4783 80.7737 36.401L83.4997 36.314V35.531C83.4997 34.5257 83.258 33.8103 82.7747 33.385C82.2913 32.9597 81.6147 32.747 80.7447 32.747C79.952 32.747 79.1883 32.863 78.4537 33.095C77.719 33.327 77.0037 33.5977 76.3077 33.907L75.1477 31.355C75.921 30.949 76.8007 30.6203 77.7867 30.369C78.792 30.1177 79.836 29.992 80.9187 29.992ZM81.5857 38.634C79.981 38.692 78.8693 38.9723 78.2507 39.475C77.632 39.9583 77.3227 40.6157 77.3227 41.447C77.3227 42.1817 77.545 42.7133 77.9897 43.042C78.4343 43.3707 79.0047 43.535 79.7007 43.535C80.764 43.535 81.663 43.2353 82.3977 42.636C83.1323 42.0173 83.4997 41.1087 83.4997 39.91V38.576L81.5857 38.634Z" fill="#D50527"/>
<path d="M99.9395 29.992C100.171 29.992 100.442 30.0017 100.751 30.021C101.061 30.0403 101.322 30.079 101.534 30.137L101.215 33.53C101.041 33.4913 100.809 33.4623 100.519 33.443C100.249 33.4043 100.007 33.385 99.7945 33.385C99.2145 33.385 98.6538 33.4817 98.1125 33.675C97.5905 33.849 97.1168 34.1197 96.6915 34.487C96.2855 34.835 95.9568 35.2893 95.7055 35.85C95.4735 36.4107 95.3575 37.0777 95.3575 37.851V46H91.7035V30.282H94.5165L95.0385 33.008H95.2125C95.5218 32.4473 95.9085 31.9447 96.3725 31.5C96.8365 31.036 97.3682 30.6687 97.9675 30.398C98.5862 30.1273 99.2435 29.992 99.9395 29.992Z" fill="#D50527"/>
<path d="M99.9395 29.992C100.171 29.992 100.442 30.0017 100.751 30.021C101.061 30.0403 101.322 30.079 101.534 30.137L101.215 33.53C101.041 33.4913 100.809 33.4623 100.519 33.443C100.249 33.4043 100.007 33.385 99.7945 33.385C99.2145 33.385 98.6538 33.4817 98.1125 33.675C97.5905 33.849 97.1168 34.1197 96.6915 34.487C96.2855 34.835 95.9568 35.2893 95.7055 35.85C95.4735 36.4107 95.3575 37.0777 95.3575 37.851V46H91.7035V30.282H94.5165L95.0385 33.008H95.2125C95.5218 32.4473 95.9085 31.9447 96.3725 31.5C96.8365 31.036 97.3682 30.6687 97.9675 30.398C98.5862 30.1273 99.2435 29.992 99.9395 29.992Z" fill="#D50527"/>
<path d="M14.5269 25.3176C14.3929 25.3534 14.2997 25.2735 14.2473 25.0778C14.2252 24.9953 14.2038 24.8741 14.1829 24.714C14.1752 24.5615 14.1503 24.386 14.1081 24.1874C13.9796 23.6255 13.8465 22.6342 13.7088 21.2135C13.6948 20.9963 13.6808 20.7792 13.6668 20.5621C13.6603 20.332 13.6525 20.0966 13.6433 19.8562L13.6055 17.6135C13.5805 17.3552 13.5523 17.0646 13.521 16.7417C13.4897 16.4188 13.4487 16.0598 13.3981 15.6648L12.2544 15.9712C12.1411 16.0016 12.023 16.0553 11.9001 16.1324C11.7387 16.2309 11.622 16.2898 11.5499 16.3091C11.4675 16.3312 11.3761 16.3612 11.2758 16.3991C11.1728 16.4267 11.0698 16.4543 10.9667 16.4819C10.7504 16.5399 10.5491 16.5717 10.3629 16.5775C10.187 16.5804 10.0783 16.5046 10.0369 16.3501C9.95411 16.041 10.0106 15.8602 10.2063 15.8078C10.3609 15.7663 10.5628 15.6957 10.8121 15.5957C10.9433 15.5496 11.0552 15.514 11.148 15.4892C11.2482 15.4513 11.3344 15.4227 11.4066 15.4033L11.7579 15.2926L12.1401 15.1737C12.3434 15.1081 12.5392 15.0557 12.7274 15.0163C12.9129 14.9666 13.0945 14.9234 13.2725 14.8868L15.0467 14.4611C15.0982 14.4473 15.1896 14.4173 15.3208 14.3711C15.4623 14.3221 15.6384 14.2584 15.8493 14.1798C16.2737 14.0329 16.5684 13.9374 16.7332 13.8932C16.8569 13.8601 16.9449 13.9414 16.9974 14.1372C17.0829 14.4566 17.0279 14.6425 16.8321 14.695C16.2242 14.8579 15.7812 14.9766 15.503 15.0511C15.2248 15.1256 15.1101 15.1509 15.1588 15.1268C14.9583 15.2026 14.7512 15.2746 14.5376 15.3429C14.3343 15.4084 14.1296 15.4688 13.9236 15.524C13.9652 15.8441 13.9979 16.1722 14.0216 16.5082C14.0426 16.8338 14.0612 17.1712 14.0775 17.5202C14.0867 17.7607 14.0984 18.0722 14.1126 18.4549C14.124 18.8273 14.1431 19.2695 14.1698 19.7813C14.1667 20.0582 14.1745 20.52 14.1931 21.1665C14.2104 21.2723 14.2271 21.4169 14.2431 21.6003C14.2564 21.7735 14.2742 21.984 14.2964 22.2321C14.2966 22.3977 14.334 22.6195 14.4085 22.8977C14.4776 23.1553 14.5355 23.3717 14.5825 23.5468C14.637 23.7089 14.6659 23.8171 14.6694 23.8714C14.6764 23.9799 14.6838 24.1105 14.6916 24.263C14.7096 24.4128 14.7294 24.5897 14.7509 24.7937C14.787 25.0933 14.7123 25.2679 14.5269 25.3176Z" fill="#D50527"/>
<path d="M14.5269 25.3176C14.3929 25.3534 14.2997 25.2735 14.2473 25.0778C14.2252 24.9953 14.2038 24.8741 14.1829 24.714C14.1752 24.5615 14.1503 24.386 14.1081 24.1874C13.9796 23.6255 13.8465 22.6342 13.7088 21.2135C13.6948 20.9963 13.6808 20.7792 13.6668 20.5621C13.6603 20.332 13.6525 20.0966 13.6433 19.8562L13.6055 17.6135C13.5805 17.3552 13.5523 17.0646 13.521 16.7417C13.4897 16.4188 13.4487 16.0598 13.3981 15.6648L12.2544 15.9712C12.1411 16.0016 12.023 16.0553 11.9001 16.1324C11.7387 16.2309 11.622 16.2898 11.5499 16.3091C11.4675 16.3312 11.3761 16.3612 11.2758 16.3991C11.1728 16.4267 11.0698 16.4543 10.9667 16.4819C10.7504 16.5399 10.5491 16.5717 10.3629 16.5775C10.187 16.5804 10.0783 16.5046 10.0369 16.3501C9.95411 16.041 10.0106 15.8602 10.2063 15.8078C10.3609 15.7663 10.5628 15.6957 10.8121 15.5957C10.9433 15.5496 11.0552 15.514 11.148 15.4892C11.2482 15.4513 11.3344 15.4227 11.4066 15.4033L11.7579 15.2926L12.1401 15.1737C12.3434 15.1081 12.5392 15.0557 12.7274 15.0163C12.9129 14.9666 13.0945 14.9234 13.2725 14.8868L15.0467 14.4611C15.0982 14.4473 15.1896 14.4173 15.3208 14.3711C15.4623 14.3221 15.6384 14.2584 15.8493 14.1798C16.2737 14.0329 16.5684 13.9374 16.7332 13.8932C16.8569 13.8601 16.9449 13.9414 16.9974 14.1372C17.0829 14.4566 17.0279 14.6425 16.8321 14.695C16.2242 14.8579 15.7812 14.9766 15.503 15.0511C15.2248 15.1256 15.1101 15.1509 15.1588 15.1268C14.9583 15.2026 14.7512 15.2746 14.5376 15.3429C14.3343 15.4084 14.1296 15.4688 13.9236 15.524C13.9652 15.8441 13.9979 16.1722 14.0216 16.5082C14.0426 16.8338 14.0612 17.1712 14.0775 17.5202C14.0867 17.7607 14.0984 18.0722 14.1126 18.4549C14.124 18.8273 14.1431 19.2695 14.1698 19.7813C14.1667 20.0582 14.1745 20.52 14.1931 21.1665C14.2104 21.2723 14.2271 21.4169 14.2431 21.6003C14.2564 21.7735 14.2742 21.984 14.2964 22.2321C14.2966 22.3977 14.334 22.6195 14.4085 22.8977C14.4776 23.1553 14.5355 23.3717 14.5825 23.5468C14.637 23.7089 14.6659 23.8171 14.6694 23.8714C14.6764 23.9799 14.6838 24.1105 14.6916 24.263C14.7096 24.4128 14.7294 24.5897 14.7509 24.7937C14.787 25.0933 14.7123 25.2679 14.5269 25.3176Z" fill="#D50527"/>
<path d="M19.4762 22.7159C19.3731 22.7435 19.2744 22.643 19.18 22.4143C19.0828 22.1753 18.9998 21.927 18.9307 21.6694C18.8866 21.5046 18.8465 21.3552 18.8106 21.2213C18.7823 21.0743 18.7585 20.9647 18.7391 20.8926C18.7115 20.7895 18.6822 20.6594 18.6511 20.5021C18.6172 20.3344 18.583 20.1448 18.5483 19.9333C18.4661 19.5025 18.3959 19.179 18.338 18.9626C18.3104 18.8596 18.279 18.7631 18.2438 18.6731C18.2059 18.5729 18.1759 18.4815 18.1538 18.3991L18.1373 18.3373C18.1041 18.2136 18.1545 18.1339 18.2885 18.098C18.3915 18.0704 18.4648 18.117 18.5082 18.2379C18.5592 18.3457 18.6367 18.5734 18.7409 18.9209C18.8451 19.2685 18.9796 19.7294 19.1445 20.3036C19.1859 20.4581 19.2375 20.5271 19.2994 20.5106C19.3715 20.4912 19.4479 20.3438 19.5287 20.0681C19.6949 19.4935 19.9077 18.9893 20.1669 18.5554C20.361 18.2494 20.5662 18.0674 20.7826 18.0095C21.0401 17.9404 21.292 17.9944 21.5382 18.1714C21.6194 18.2269 21.671 18.2959 21.6931 18.3784C21.729 18.5123 21.6902 18.5945 21.5769 18.6248C21.5357 18.6359 21.4852 18.6328 21.4254 18.6157L21.4141 18.6353C21.1797 18.5435 21.0315 18.5059 20.9697 18.5225C20.7224 18.5888 20.5265 18.7848 20.3819 19.1107C19.8783 20.2395 19.6658 21.3013 19.7447 22.2961C19.7614 22.5236 19.6719 22.6635 19.4762 22.7159Z" fill="#D50527"/>
<path d="M19.4762 22.7159C19.3731 22.7435 19.2744 22.643 19.18 22.4143C19.0828 22.1753 18.9998 21.927 18.9307 21.6694C18.8866 21.5046 18.8465 21.3552 18.8106 21.2213C18.7823 21.0743 18.7585 20.9647 18.7391 20.8926C18.7115 20.7895 18.6822 20.6594 18.6511 20.5021C18.6172 20.3344 18.583 20.1448 18.5483 19.9333C18.4661 19.5025 18.3959 19.179 18.338 18.9626C18.3104 18.8596 18.279 18.7631 18.2438 18.6731C18.2059 18.5729 18.1759 18.4815 18.1538 18.3991L18.1373 18.3373C18.1041 18.2136 18.1545 18.1339 18.2885 18.098C18.3915 18.0704 18.4648 18.117 18.5082 18.2379C18.5592 18.3457 18.6367 18.5734 18.7409 18.9209C18.8451 19.2685 18.9796 19.7294 19.1445 20.3036C19.1859 20.4581 19.2375 20.5271 19.2994 20.5106C19.3715 20.4912 19.4479 20.3438 19.5287 20.0681C19.6949 19.4935 19.9077 18.9893 20.1669 18.5554C20.361 18.2494 20.5662 18.0674 20.7826 18.0095C21.0401 17.9404 21.292 17.9944 21.5382 18.1714C21.6194 18.2269 21.671 18.2959 21.6931 18.3784C21.729 18.5123 21.6902 18.5945 21.5769 18.6248C21.5357 18.6359 21.4852 18.6328 21.4254 18.6157L21.4141 18.6353C21.1797 18.5435 21.0315 18.5059 20.9697 18.5225C20.7224 18.5888 20.5265 18.7848 20.3819 19.1107C19.8783 20.2395 19.6658 21.3013 19.7447 22.2961C19.7614 22.5236 19.6719 22.6635 19.4762 22.7159Z" fill="#D50527"/>
<path d="M27.6197 20.6498C27.3958 20.7209 27.1847 20.6339 26.9865 20.3888C26.9521 20.3428 26.9029 20.2622 26.8389 20.1468C26.7748 20.0314 26.6908 19.8828 26.5868 19.7008C26.4766 19.4543 26.382 19.3692 26.3031 19.4456C26.2073 19.7473 26.0462 20.0941 25.8199 20.4861C25.5333 20.9825 25.2921 21.2569 25.0964 21.3094C24.88 21.3674 24.6504 21.2522 24.4075 20.9639C24.2045 20.7422 24.0713 20.5129 24.0078 20.2759C23.7952 19.4826 23.7119 18.7595 23.7579 18.1067C23.7762 17.9693 23.837 17.8867 23.94 17.8591C24.0327 17.8343 24.1327 17.8572 24.24 17.9278C24.3473 17.9985 24.4161 18.0905 24.4465 18.2038C24.463 18.2656 24.4549 18.4003 24.4222 18.6078C24.3286 19.0415 24.3453 19.4953 24.4723 19.9693C24.6103 20.4844 24.7772 20.7158 24.973 20.6633C25.0657 20.6385 25.2523 20.4283 25.5329 20.0329C26.0254 19.3157 26.2934 18.4819 26.3369 17.5316C26.3553 17.3942 26.4211 17.3103 26.5345 17.2799C26.7199 17.2302 26.8334 17.2826 26.8748 17.4372C26.9024 17.5402 26.9173 17.6577 26.9195 17.7896C26.932 17.9188 26.9332 18.0675 26.9231 18.2359C26.9233 18.4015 26.9297 18.5488 26.9422 18.678C26.9547 18.8072 26.9748 18.9232 27.0024 19.0263C27.0217 19.0984 27.0504 19.1846 27.0883 19.2849C27.1234 19.3748 27.1665 19.4737 27.2175 19.5815C27.3518 19.8768 27.4568 20.042 27.5324 20.0769C27.5324 20.0769 27.577 20.0373 27.6662 19.9582C27.763 19.866 27.8701 19.7711 27.9875 19.6734C28.1124 19.5626 28.2143 19.469 28.2932 19.3927C28.3797 19.3033 28.4229 19.2585 28.4229 19.2585C28.526 19.2309 28.5885 19.2583 28.6106 19.3408C28.6327 19.4232 28.5769 19.5651 28.4431 19.7666C28.3197 19.9653 28.1766 20.1528 28.014 20.3288C27.8514 20.5049 27.7199 20.6119 27.6197 20.6498Z" fill="#D50527"/>
<path d="M27.6197 20.6498C27.3958 20.7209 27.1847 20.6339 26.9865 20.3888C26.9521 20.3428 26.9029 20.2622 26.8389 20.1468C26.7748 20.0314 26.6908 19.8828 26.5868 19.7008C26.4766 19.4543 26.382 19.3692 26.3031 19.4456C26.2073 19.7473 26.0462 20.0941 25.8199 20.4861C25.5333 20.9825 25.2921 21.2569 25.0964 21.3094C24.88 21.3674 24.6504 21.2522 24.4075 20.9639C24.2045 20.7422 24.0713 20.5129 24.0078 20.2759C23.7952 19.4826 23.7119 18.7595 23.7579 18.1067C23.7762 17.9693 23.837 17.8867 23.94 17.8591C24.0327 17.8343 24.1327 17.8572 24.24 17.9278C24.3473 17.9985 24.4161 18.0905 24.4465 18.2038C24.463 18.2656 24.4549 18.4003 24.4222 18.6078C24.3286 19.0415 24.3453 19.4953 24.4723 19.9693C24.6103 20.4844 24.7772 20.7158 24.973 20.6633C25.0657 20.6385 25.2523 20.4283 25.5329 20.0329C26.0254 19.3157 26.2934 18.4819 26.3369 17.5316C26.3553 17.3942 26.4211 17.3103 26.5345 17.2799C26.7199 17.2302 26.8334 17.2826 26.8748 17.4372C26.9024 17.5402 26.9173 17.6577 26.9195 17.7896C26.932 17.9188 26.9332 18.0675 26.9231 18.2359C26.9233 18.4015 26.9297 18.5488 26.9422 18.678C26.9547 18.8072 26.9748 18.9232 27.0024 19.0263C27.0217 19.0984 27.0504 19.1846 27.0883 19.2849C27.1234 19.3748 27.1665 19.4737 27.2175 19.5815C27.3518 19.8768 27.4568 20.042 27.5324 20.0769C27.5324 20.0769 27.577 20.0373 27.6662 19.9582C27.763 19.866 27.8701 19.7711 27.9875 19.6734C28.1124 19.5626 28.2143 19.469 28.2932 19.3927C28.3797 19.3033 28.4229 19.2585 28.4229 19.2585C28.526 19.2309 28.5885 19.2583 28.6106 19.3408C28.6327 19.4232 28.5769 19.5651 28.4431 19.7666C28.3197 19.9653 28.1766 20.1528 28.014 20.3288C27.8514 20.5049 27.7199 20.6119 27.6197 20.6498Z" fill="#D50527"/>
<path d="M30.9238 20.1289C30.6662 20.1979 30.4323 20.2109 30.222 20.1679C30.022 20.1221 29.8999 20.0168 29.8557 19.8519C29.8253 19.7386 29.8617 19.6681 29.9647 19.6405C29.9544 19.6433 30.0465 19.6572 30.241 19.6824C30.4327 19.6973 30.6264 19.6785 30.8222 19.6261C31.4198 19.466 31.7213 19.087 31.7268 18.4892C31.7251 18.2357 31.4038 17.9021 30.7629 17.4886C30.3105 17.2012 30.0194 16.8154 29.8896 16.3312C29.8455 16.1663 29.8665 15.9564 29.9528 15.7014C30.0363 15.4361 30.159 15.1934 30.3209 14.9733C30.48 14.7429 30.6523 14.6029 30.8378 14.5532C31.1675 14.4649 31.375 14.4976 31.4604 14.6514C31.479 14.6796 31.4924 14.7091 31.5007 14.74C31.5193 14.7681 31.5327 14.7977 31.541 14.8286C31.5852 14.9934 31.5454 15.0924 31.4218 15.1255C31.3497 15.1449 31.2861 15.1343 31.2311 15.0938C31.1658 15.0561 31.0867 15.0497 30.994 15.0745C30.9734 15.08 30.9477 15.087 30.9167 15.0952C30.8858 15.1035 30.8628 15.1207 30.8477 15.1468C30.5265 15.4317 30.3843 15.7459 30.4212 16.0894C30.4572 16.3889 30.7864 16.7314 31.4087 17.1168C31.9657 17.4645 32.298 17.8392 32.4057 18.2411C32.5244 18.6841 32.393 19.1003 32.0114 19.4897C31.7191 19.7999 31.3565 20.013 30.9238 20.1289Z" fill="#D50527"/>
<path d="M30.9238 20.1289C30.6662 20.1979 30.4323 20.2109 30.222 20.1679C30.022 20.1221 29.8999 20.0168 29.8557 19.8519C29.8253 19.7386 29.8617 19.6681 29.9647 19.6405C29.9544 19.6433 30.0465 19.6572 30.241 19.6824C30.4327 19.6973 30.6264 19.6785 30.8222 19.6261C31.4198 19.466 31.7213 19.087 31.7268 18.4892C31.7251 18.2357 31.4038 17.9021 30.7629 17.4886C30.3105 17.2012 30.0194 16.8154 29.8896 16.3312C29.8455 16.1663 29.8665 15.9564 29.9528 15.7014C30.0363 15.4361 30.159 15.1934 30.3209 14.9733C30.48 14.7429 30.6523 14.6029 30.8378 14.5532C31.1675 14.4649 31.375 14.4976 31.4604 14.6514C31.479 14.6796 31.4924 14.7091 31.5007 14.74C31.5193 14.7681 31.5327 14.7977 31.541 14.8286C31.5852 14.9934 31.5454 15.0924 31.4218 15.1255C31.3497 15.1449 31.2861 15.1343 31.2311 15.0938C31.1658 15.0561 31.0867 15.0497 30.994 15.0745C30.9734 15.08 30.9477 15.087 30.9167 15.0952C30.8858 15.1035 30.8628 15.1207 30.8477 15.1468C30.5265 15.4317 30.3843 15.7459 30.4212 16.0894C30.4572 16.3889 30.7864 16.7314 31.4087 17.1168C31.9657 17.4645 32.298 17.8392 32.4057 18.2411C32.5244 18.6841 32.393 19.1003 32.0114 19.4897C31.7191 19.7999 31.3565 20.013 30.9238 20.1289Z" fill="#D50527"/>
<path d="M36.3723 19.2985C36.1147 19.3675 35.9445 19.2474 35.8617 18.9383C35.4503 17.4032 35.1209 15.7411 34.8735 13.9522C34.7649 13.9592 34.6526 13.9727 34.5365 13.9928C34.4279 13.9998 34.3194 14.0068 34.2108 14.0138C33.9113 14.0499 33.745 14.0061 33.7118 13.8825C33.6787 13.7588 33.7198 13.665 33.8352 13.601L33.8197 13.6051C33.727 13.63 33.7411 13.6207 33.862 13.5772C33.9801 13.5235 34.1343 13.4601 34.3245 13.387C34.5147 13.314 34.6665 13.2623 34.7799 13.2319C34.745 12.8547 34.7541 12.394 34.8071 11.8498C34.83 11.5234 34.8434 11.2437 34.8473 11.0108C34.8587 10.7648 34.867 10.5693 34.8723 10.4243C34.8686 10.2044 34.975 10.0655 35.1913 10.0075C35.2841 9.98268 35.3326 10.0194 35.3368 10.1176C35.3317 10.4282 35.3294 10.8319 35.33 11.3287C35.3278 11.8151 35.3388 12.3919 35.363 13.0591C35.4557 13.0342 35.5691 13.0039 35.703 12.968C35.8472 12.9293 36.0135 12.8903 36.2017 12.8509C36.3899 12.8115 36.5524 12.779 36.6891 12.7534C36.8333 12.7148 36.9467 12.6844 37.0291 12.6623C37.1218 12.6375 37.1778 12.6611 37.1972 12.7333C37.2137 12.7951 37.1905 12.8731 37.1274 12.9673C37.0746 13.0587 37.0018 13.1169 36.9091 13.1417C36.7854 13.1749 36.6055 13.2452 36.3693 13.3526C36.1303 13.4498 35.8298 13.5855 35.4679 13.7598C35.653 15.0685 36.0367 16.8098 36.6192 18.9838C36.6607 19.1384 36.5783 19.2432 36.3723 19.2985Z" fill="#D50527"/>
<path d="M36.3723 19.2985C36.1147 19.3675 35.9445 19.2474 35.8617 18.9383C35.4503 17.4032 35.1209 15.7411 34.8735 13.9522C34.7649 13.9592 34.6526 13.9727 34.5365 13.9928C34.4279 13.9998 34.3194 14.0068 34.2108 14.0138C33.9113 14.0499 33.745 14.0061 33.7118 13.8825C33.6787 13.7588 33.7198 13.665 33.8352 13.601L33.8197 13.6051C33.727 13.63 33.7411 13.6207 33.862 13.5772C33.9801 13.5235 34.1343 13.4601 34.3245 13.387C34.5147 13.314 34.6665 13.2623 34.7799 13.2319C34.745 12.8547 34.7541 12.394 34.8071 11.8498C34.83 11.5234 34.8434 11.2437 34.8473 11.0108C34.8587 10.7648 34.867 10.5693 34.8723 10.4243C34.8686 10.2044 34.975 10.0655 35.1913 10.0075C35.2841 9.98268 35.3326 10.0194 35.3368 10.1176C35.3317 10.4282 35.3294 10.8319 35.33 11.3287C35.3278 11.8151 35.3388 12.3919 35.363 13.0591C35.4557 13.0342 35.5691 13.0039 35.703 12.968C35.8472 12.9293 36.0135 12.8903 36.2017 12.8509C36.3899 12.8115 36.5524 12.779 36.6891 12.7534C36.8333 12.7148 36.9467 12.6844 37.0291 12.6623C37.1218 12.6375 37.1778 12.6611 37.1972 12.7333C37.2137 12.7951 37.1905 12.8731 37.1274 12.9673C37.0746 13.0587 37.0018 13.1169 36.9091 13.1417C36.7854 13.1749 36.6055 13.2452 36.3693 13.3526C36.1303 13.4498 35.8298 13.5855 35.4679 13.7598C35.653 15.0685 36.0367 16.8098 36.6192 18.9838C36.6607 19.1384 36.5783 19.2432 36.3723 19.2985Z" fill="#D50527"/>
<path d="M19.5947 25.75C21.992 23.5471 26.0586 22.9732 29.1044 22.3064C35.1763 20.9773 41.3356 20.2785 47.508 19.5927M37.471 46H25.697V25.294H37.471V28.397H29.409V33.675H36.949V36.778H29.409V42.868H37.471V46ZM49.9299 29.992C51.6892 29.992 53.0619 30.4463 54.0479 31.355C55.0532 32.2637 55.5559 33.733 55.5559 35.763V46H51.9019V36.488C51.9019 35.3087 51.6699 34.429 51.2059 33.849C50.7419 33.2497 50.0072 32.95 49.0019 32.95C47.5326 32.95 46.5272 33.414 45.9859 34.342C45.4446 35.2507 45.1739 36.575 45.1739 38.315V46H41.5199V30.282H44.3329L44.8549 32.341H45.0579C45.4059 31.7997 45.8312 31.355 46.3339 31.007C46.8366 30.659 47.3972 30.4077 48.0159 30.253C48.6346 30.079 49.2726 29.992 49.9299 29.992ZM66.4773 46.29C64.9887 46.29 63.6933 46.0097 62.5913 45.449C61.5087 44.869 60.6677 43.9893 60.0683 42.81C59.4883 41.6113 59.1983 40.084 59.1983 38.228C59.1983 36.2947 59.5173 34.7287 60.1553 33.53C60.8127 32.312 61.7117 31.4227 62.8523 30.862C63.993 30.282 65.298 29.992 66.7673 29.992C67.7533 29.992 68.633 30.0887 69.4063 30.282C70.1797 30.4753 70.837 30.7073 71.3783 30.978L70.3053 33.849C69.706 33.617 69.1067 33.4237 68.5073 33.269C67.908 33.095 67.328 33.008 66.7673 33.008C65.8973 33.008 65.1723 33.2013 64.5923 33.588C64.0317 33.9747 63.616 34.5547 63.3453 35.328C63.0747 36.082 62.9393 37.039 62.9393 38.199C62.9393 39.3203 63.0747 40.258 63.3453 41.012C63.6353 41.766 64.0607 42.3363 64.6213 42.723C65.182 43.0903 65.878 43.274 66.7093 43.274C67.5987 43.274 68.3817 43.1677 69.0583 42.955C69.735 42.7423 70.373 42.4523 70.9723 42.085V45.246C70.373 45.6133 69.7253 45.8743 69.0293 46.029C68.3527 46.203 67.502 46.29 66.4773 46.29ZM80.9187 29.992C82.9487 29.992 84.4857 30.4367 85.5297 31.326C86.593 32.196 87.1247 33.5687 87.1247 35.444V46H84.5437L83.8187 43.825H83.7027C83.258 44.3857 82.794 44.8593 82.3107 45.246C81.8467 45.6133 81.3053 45.8743 80.6867 46.029C80.0873 46.203 79.3527 46.29 78.4827 46.29C77.5547 46.29 76.7137 46.116 75.9597 45.768C75.225 45.42 74.645 44.8883 74.2197 44.173C73.7943 43.4383 73.5817 42.52 73.5817 41.418C73.5817 39.794 74.1713 38.576 75.3507 37.764C76.5493 36.9327 78.357 36.4783 80.7737 36.401L83.4997 36.314V35.531C83.4997 34.5257 83.258 33.8103 82.7747 33.385C82.2913 32.9597 81.6147 32.747 80.7447 32.747C79.952 32.747 79.1883 32.863 78.4537 33.095C77.719 33.327 77.0037 33.5977 76.3077 33.907L75.1477 31.355C75.921 30.949 76.8007 30.6203 77.7867 30.369C78.792 30.1177 79.836 29.992 80.9187 29.992ZM81.5857 38.634C79.981 38.692 78.8693 38.9723 78.2507 39.475C77.632 39.9583 77.3227 40.6157 77.3227 41.447C77.3227 42.1817 77.545 42.7133 77.9897 43.042C78.4343 43.3707 79.0047 43.535 79.7007 43.535C80.764 43.535 81.663 43.2353 82.3977 42.636C83.1323 42.0173 83.4997 41.1087 83.4997 39.91V38.576L81.5857 38.634ZM99.9395 29.992C100.171 29.992 100.442 30.0017 100.751 30.021C101.061 30.0403 101.322 30.079 101.534 30.137L101.215 33.53C101.041 33.4913 100.809 33.4623 100.519 33.443C100.249 33.4043 100.007 33.385 99.7945 33.385C99.2145 33.385 98.6538 33.4817 98.1125 33.675C97.5905 33.849 97.1168 34.1197 96.6915 34.487C96.2855 34.835 95.9568 35.2893 95.7055 35.85C95.4735 36.4107 95.3575 37.0777 95.3575 37.851V46H91.7035V30.282H94.5165L95.0385 33.008H95.2125C95.5218 32.4473 95.9085 31.9447 96.3725 31.5C96.8365 31.036 97.3682 30.6687 97.9675 30.398C98.5862 30.1273 99.2435 29.992 99.9395 29.992ZM14.5269 25.3176C14.3929 25.3534 14.2997 25.2735 14.2473 25.0778C14.2252 24.9953 14.2038 24.8741 14.1829 24.714C14.1752 24.5615 14.1503 24.386 14.1081 24.1874C13.9796 23.6255 13.8465 22.6342 13.7088 21.2135C13.6948 20.9963 13.6808 20.7792 13.6668 20.5621C13.6603 20.332 13.6525 20.0966 13.6433 19.8562L13.6055 17.6135C13.5805 17.3552 13.5523 17.0646 13.521 16.7417C13.4897 16.4188 13.4487 16.0598 13.3981 15.6648L12.2544 15.9712C12.1411 16.0016 12.023 16.0553 11.9001 16.1324C11.7387 16.2309 11.622 16.2898 11.5499 16.3091C11.4675 16.3312 11.3761 16.3612 11.2758 16.3991C11.1728 16.4267 11.0698 16.4543 10.9667 16.4819C10.7504 16.5399 10.5491 16.5717 10.3629 16.5775C10.187 16.5804 10.0783 16.5046 10.0369 16.3501C9.95411 16.041 10.0106 15.8602 10.2063 15.8078C10.3609 15.7663 10.5628 15.6957 10.8121 15.5957C10.9433 15.5496 11.0552 15.514 11.148 15.4892C11.2482 15.4513 11.3344 15.4227 11.4066 15.4033L11.7579 15.2926L12.1401 15.1737C12.3434 15.1081 12.5392 15.0557 12.7274 15.0163C12.9129 14.9666 13.0945 14.9234 13.2725 14.8868L15.0467 14.4611C15.0982 14.4473 15.1896 14.4173 15.3208 14.3711C15.4623 14.3221 15.6384 14.2584 15.8493 14.1798C16.2737 14.0329 16.5684 13.9374 16.7332 13.8932C16.8569 13.8601 16.9449 13.9414 16.9974 14.1372C17.0829 14.4566 17.0279 14.6425 16.8321 14.695C16.2242 14.8579 15.7812 14.9766 15.503 15.0511C15.2248 15.1256 15.1101 15.1509 15.1588 15.1268C14.9583 15.2026 14.7512 15.2746 14.5376 15.3429C14.3343 15.4084 14.1296 15.4688 13.9236 15.524C13.9652 15.8441 13.9979 16.1722 14.0216 16.5082C14.0426 16.8338 14.0612 17.1712 14.0775 17.5202C14.0867 17.7607 14.0984 18.0722 14.1126 18.4549C14.124 18.8273 14.1431 19.2695 14.1698 19.7813C14.1667 20.0582 14.1745 20.52 14.1931 21.1665C14.2104 21.2723 14.2271 21.4169 14.2431 21.6003C14.2564 21.7735 14.2742 21.984 14.2964 22.2321C14.2966 22.3977 14.334 22.6195 14.4085 22.8977C14.4776 23.1553 14.5355 23.3717 14.5825 23.5468C14.637 23.7089 14.6659 23.8171 14.6694 23.8714C14.6764 23.9799 14.6838 24.1105 14.6916 24.263C14.7096 24.4128 14.7294 24.5897 14.7509 24.7937C14.787 25.0933 14.7123 25.2679 14.5269 25.3176ZM19.4762 22.7159C19.3731 22.7435 19.2744 22.643 19.18 22.4143C19.0828 22.1753 18.9998 21.927 18.9307 21.6694C18.8866 21.5046 18.8465 21.3552 18.8106 21.2213C18.7823 21.0743 18.7585 20.9647 18.7391 20.8926C18.7115 20.7895 18.6822 20.6594 18.6511 20.5021C18.6172 20.3344 18.583 20.1448 18.5483 19.9333C18.4661 19.5025 18.3959 19.179 18.338 18.9626C18.3104 18.8596 18.279 18.7631 18.2438 18.6731C18.2059 18.5729 18.1759 18.4815 18.1538 18.3991L18.1373 18.3373C18.1041 18.2136 18.1545 18.1339 18.2885 18.098C18.3915 18.0704 18.4648 18.117 18.5082 18.2379C18.5592 18.3457 18.6367 18.5734 18.7409 18.9209C18.8451 19.2685 18.9796 19.7294 19.1445 20.3036C19.1859 20.4581 19.2375 20.5271 19.2994 20.5106C19.3715 20.4912 19.4479 20.3438 19.5287 20.0681C19.6949 19.4935 19.9077 18.9893 20.1669 18.5554C20.361 18.2494 20.5662 18.0674 20.7826 18.0095C21.0401 17.9404 21.292 17.9944 21.5382 18.1714C21.6194 18.2269 21.671 18.2959 21.6931 18.3784C21.729 18.5123 21.6902 18.5945 21.5769 18.6248C21.5357 18.6359 21.4852 18.6328 21.4254 18.6157L21.4141 18.6353C21.1797 18.5435 21.0315 18.5059 20.9697 18.5225C20.7224 18.5888 20.5265 18.7848 20.3819 19.1107C19.8783 20.2395 19.6658 21.3013 19.7447 22.2961C19.7614 22.5236 19.6719 22.6635 19.4762 22.7159ZM27.6197 20.6498C27.3958 20.7209 27.1847 20.6339 26.9865 20.3888C26.9521 20.3428 26.9029 20.2622 26.8389 20.1468C26.7748 20.0314 26.6908 19.8828 26.5868 19.7008C26.4766 19.4543 26.382 19.3692 26.3031 19.4456C26.2073 19.7473 26.0462 20.0941 25.8199 20.4861C25.5333 20.9825 25.2921 21.2569 25.0964 21.3094C24.88 21.3674 24.6504 21.2522 24.4075 20.9639C24.2045 20.7422 24.0713 20.5129 24.0078 20.2759C23.7952 19.4826 23.7119 18.7595 23.7579 18.1067C23.7762 17.9693 23.837 17.8867 23.94 17.8591C24.0327 17.8343 24.1327 17.8572 24.24 17.9278C24.3473 17.9985 24.4161 18.0905 24.4465 18.2038C24.463 18.2656 24.4549 18.4003 24.4222 18.6078C24.3286 19.0415 24.3453 19.4953 24.4723 19.9693C24.6103 20.4844 24.7772 20.7158 24.973 20.6633C25.0657 20.6385 25.2523 20.4283 25.5329 20.0329C26.0254 19.3157 26.2934 18.4819 26.3369 17.5316C26.3553 17.3942 26.4211 17.3103 26.5345 17.2799C26.7199 17.2302 26.8334 17.2826 26.8748 17.4372C26.9024 17.5402 26.9173 17.6577 26.9195 17.7896C26.932 17.9188 26.9332 18.0675 26.9231 18.2359C26.9233 18.4015 26.9297 18.5488 26.9422 18.678C26.9547 18.8072 26.9748 18.9232 27.0024 19.0263C27.0217 19.0984 27.0504 19.1846 27.0883 19.2849C27.1234 19.3748 27.1665 19.4737 27.2175 19.5815C27.3518 19.8768 27.4568 20.042 27.5324 20.0769C27.5324 20.0769 27.577 20.0373 27.6662 19.9582C27.763 19.866 27.8701 19.7711 27.9875 19.6734C28.1124 19.5626 28.2143 19.469 28.2932 19.3927C28.3797 19.3033 28.4229 19.2585 28.4229 19.2585C28.526 19.2309 28.5885 19.2583 28.6106 19.3408C28.6327 19.4232 28.5769 19.5651 28.4431 19.7666C28.3197 19.9653 28.1766 20.1528 28.014 20.3288C27.8514 20.5049 27.7199 20.6119 27.6197 20.6498ZM30.9238 20.1289C30.6662 20.1979 30.4323 20.2109 30.222 20.1679C30.022 20.1221 29.8999 20.0168 29.8557 19.8519C29.8253 19.7386 29.8617 19.6681 29.9647 19.6405C29.9544 19.6433 30.0465 19.6572 30.241 19.6824C30.4327 19.6973 30.6264 19.6785 30.8222 19.6261C31.4198 19.466 31.7213 19.087 31.7268 18.4892C31.7251 18.2357 31.4038 17.9021 30.7629 17.4886C30.3105 17.2012 30.0194 16.8154 29.8896 16.3312C29.8455 16.1663 29.8665 15.9564 29.9528 15.7014C30.0363 15.4361 30.159 15.1934 30.3209 14.9733C30.48 14.7429 30.6523 14.6029 30.8378 14.5532C31.1675 14.4649 31.375 14.4976 31.4604 14.6514C31.479 14.6796 31.4924 14.7091 31.5007 14.74C31.5193 14.7681 31.5327 14.7977 31.541 14.8286C31.5852 14.9934 31.5454 15.0924 31.4218 15.1255C31.3497 15.1449 31.2861 15.1343 31.2311 15.0938C31.1658 15.0561 31.0867 15.0497 30.994 15.0745C30.9734 15.08 30.9477 15.087 30.9167 15.0952C30.8858 15.1035 30.8628 15.1207 30.8477 15.1468C30.5265 15.4317 30.3843 15.7459 30.4212 16.0894C30.4572 16.3889 30.7864 16.7314 31.4087 17.1168C31.9657 17.4645 32.298 17.8392 32.4057 18.2411C32.5244 18.6841 32.393 19.1003 32.0114 19.4897C31.7191 19.7999 31.3565 20.013 30.9238 20.1289ZM36.3723 19.2985C36.1147 19.3675 35.9445 19.2474 35.8617 18.9383C35.4503 17.4032 35.1209 15.7411 34.8735 13.9522C34.7649 13.9592 34.6526 13.9727 34.5365 13.9928C34.4279 13.9998 34.3194 14.0068 34.2108 14.0138C33.9113 14.0499 33.745 14.0061 33.7118 13.8825C33.6787 13.7588 33.7198 13.665 33.8352 13.601L33.8197 13.6051C33.727 13.63 33.7411 13.6207 33.862 13.5772C33.9801 13.5235 34.1343 13.4601 34.3245 13.387C34.5147 13.314 34.6665 13.2623 34.7799 13.2319C34.745 12.8547 34.7541 12.394 34.8071 11.8498C34.83 11.5234 34.8434 11.2437 34.8473 11.0108C34.8587 10.7648 34.867 10.5693 34.8723 10.4243C34.8686 10.2044 34.975 10.0655 35.1913 10.0075C35.2841 9.98268 35.3326 10.0194 35.3368 10.1176C35.3317 10.4282 35.3294 10.8319 35.33 11.3287C35.3278 11.8151 35.3388 12.3919 35.363 13.0591C35.4557 13.0342 35.5691 13.0039 35.703 12.968C35.8472 12.9293 36.0135 12.8903 36.2017 12.8509C36.3899 12.8115 36.5524 12.779 36.6891 12.7534C36.8333 12.7148 36.9467 12.6844 37.0291 12.6623C37.1218 12.6375 37.1778 12.6611 37.1972 12.7333C37.2137 12.7951 37.1905 12.8731 37.1274 12.9673C37.0746 13.0587 37.0018 13.1169 36.9091 13.1417C36.7854 13.1749 36.6055 13.2452 36.3693 13.3526C36.1303 13.4498 35.8298 13.5855 35.4679 13.7598C35.653 15.0685 36.0367 16.8098 36.6192 18.9838C36.6607 19.1384 36.5783 19.2432 36.3723 19.2985Z" stroke="#D50527" stroke-linecap="round"/>
</svg>
