<svg width="44" height="44" viewBox="0 0 44 44" fill="none" xmlns="http://www.w3.org/2000/svg">
<g filter="url(#filter0_d_91_51)">
<path d="M22.6267 7C25.0267 7 26.2267 7 27.5333 7.4C28.9467 7.90667 30.0667 9.02667 30.5733 10.44C31 11.7467 31 12.9733 31 15.3733V22.6267C31 25.0267 31 26.2267 30.6 27.5333C30.0933 28.9467 28.9733 30.0667 27.56 30.5733C26.2267 31 25.0267 31 22.6267 31H15.3733C12.9733 31 11.7733 31 10.4667 30.6C9.02667 30.0667 7.93333 28.9733 7.4 27.5333C7 26.2533 7 25.0533 7 22.6267V15.3733C7 12.9733 7 11.7733 7.4 10.4667C7.93333 9.05333 9.02667 7.93333 10.4667 7.42667C11.7467 7 12.9467 7 15.3733 7H22.6267Z" fill="url(#paint0_linear_91_51)"/>
</g>
<path d="M12.9267 22.8132C12.9534 22.7599 13.0067 22.7332 13.0601 22.7065C13.2734 22.6532 13.4867 22.5999 13.7001 22.5999C14.2867 22.5999 14.8201 22.8132 15.2467 23.1865C15.3001 23.2399 15.3001 23.3199 15.2734 23.3732L14.1801 25.2399C13.9667 25.6132 13.5667 25.8265 13.1667 25.8265C12.9267 25.8265 12.6867 25.7465 12.4734 25.5865C11.9934 25.2399 11.8867 24.5465 12.1801 24.0399L12.9267 22.8132ZM27.1401 19.9599C27.7534 19.9599 28.2867 20.4132 28.3401 20.9999C28.3934 21.6932 27.8601 22.2799 27.1934 22.2799H25.7801L26.8201 24.0665C27.1134 24.5732 27.0067 25.2665 26.5267 25.6132C26.3134 25.7732 26.0734 25.8532 25.8334 25.8532C25.4334 25.8532 25.0334 25.6399 24.8201 25.2665L22.3134 20.9199L20.3401 17.5065C20.3134 17.4799 20.3134 17.4532 20.3134 17.3999C20.3134 17.2665 20.2867 17.1332 20.2867 16.9999C20.2867 16.0665 20.5001 15.1332 20.9267 14.3865C20.9801 14.3065 21.1134 14.3065 21.1667 14.3865L24.4201 19.9332H27.1401V19.9599ZM21.0067 20.0132C21.5934 20.3599 21.9667 21.0265 21.9667 21.7732C21.9667 21.9332 21.9401 22.0665 21.9134 22.2265C21.9134 22.2532 21.8601 22.2799 21.8334 22.2799H18.1001H11.8867C11.2201 22.2799 10.6601 21.6932 10.7401 20.9999C10.7934 20.3865 11.3267 19.9599 11.9401 19.9599H14.5801L18.1801 13.7732L17.1934 12.0932C16.8467 11.5065 17.0867 10.7332 17.7267 10.4665C18.2867 10.2265 18.9267 10.4665 19.2467 10.9732L19.5401 11.4799L19.8601 10.9465C20.2067 10.3599 20.9801 10.1732 21.5401 10.5732C22.0467 10.9199 22.1534 11.6132 21.8334 12.1465L17.2467 19.9599H19.1134H20.8201C20.9001 19.9599 20.9534 19.9865 21.0067 20.0132Z" fill="#FEFEFE"/>
<defs>
<filter id="filter0_d_91_51" x="0" y="0" width="44" height="44" filterUnits="userSpaceOnUse" color-interpolation-filters="sRGB">
<feFlood flood-opacity="0" result="BackgroundImageFix"/>
<feColorMatrix in="SourceAlpha" type="matrix" values="0 0 0 0 0 0 0 0 0 0 0 0 0 0 0 0 0 0 127 0" result="hardAlpha"/>
<feOffset dx="3" dy="3"/>
<feGaussianBlur stdDeviation="5"/>
<feComposite in2="hardAlpha" operator="out"/>
<feColorMatrix type="matrix" values="0 0 0 0 0 0 0 0 0 0 0 0 0 0 0 0 0 0 0.1 0"/>
<feBlend mode="normal" in2="BackgroundImageFix" result="effect1_dropShadow_91_51"/>
<feBlend mode="normal" in="SourceGraphic" in2="effect1_dropShadow_91_51" result="shape"/>
</filter>
<linearGradient id="paint0_linear_91_51" x1="18.9963" y1="7.00747" x2="18.9963" y2="30.9995" gradientUnits="userSpaceOnUse">
<stop stop-color="#19E6FF"/>
<stop offset="1" stop-color="#1E51EE"/>
</linearGradient>
</defs>
</svg>
