<svg width="44" height="44" viewBox="0 0 44 44" fill="none" xmlns="http://www.w3.org/2000/svg">
<g filter="url(#filter0_d_156_18)">
<path d="M22.6267 7C25.0267 7 26.2267 7 27.5333 7.4C28.9467 7.90667 30.0667 9.02667 30.5733 10.44C31 11.7467 31 12.9733 31 15.3733V22.6267C31 25.0267 31 26.2267 30.6 27.5333C30.0933 28.9467 28.9733 30.0667 27.56 30.5733C26.2267 31 25.0267 31 22.6267 31H15.3733C12.9733 31 11.7733 31 10.4667 30.6C9.02667 30.0667 7.93333 28.9733 7.4 27.5333C7 26.2533 7 25.0533 7 22.6267V15.3733C7 12.9733 7 11.7733 7.4 10.4667C7.93333 9.05333 9.02667 7.93333 10.4667 7.42667C11.7467 7 12.9467 7 15.3733 7H22.6267Z" fill="#FEFEFE"/>
</g>
<path d="M20.6009 18.5577L14.5038 24.6264C14.3605 24.4887 14.2469 24.3232 14.17 24.14C14.0931 23.9567 14.0546 23.7597 14.0567 23.561V14.0491C14.0557 13.8474 14.0966 13.6477 14.1768 13.4627C14.2571 13.2777 14.3749 13.1113 14.5228 12.9742L20.6009 18.5577Z" fill="url(#paint0_linear_156_18)"/>
<path d="M25.9263 18.8677C25.9246 19.1384 25.8493 19.4035 25.7086 19.6347C25.5679 19.8659 25.3669 20.0545 25.1273 20.1804L23.3866 21.1315L21.2274 19.1531L20.5996 18.6204L22.892 16.347L25.0988 17.5551C25.3437 17.677 25.5505 17.864 25.6964 18.0955C25.8423 18.327 25.9219 18.5941 25.9263 18.8677Z" fill="url(#paint1_linear_156_18)"/>
<path d="M20.5996 18.6204L14.5215 13.0274C14.6091 12.9479 14.7047 12.8778 14.8068 12.8181C15.0523 12.6752 15.3313 12.6 15.6154 12.6C15.8994 12.6 16.1784 12.6752 16.4239 12.8181L22.9205 16.366L20.5996 18.6204Z" fill="url(#paint2_linear_156_18)"/>
<path d="M23.3881 21.141L16.4253 24.9458C16.1826 25.0763 15.9114 25.145 15.6358 25.1455C15.3439 25.1499 15.0567 25.0707 14.8083 24.9173C14.6991 24.852 14.5971 24.7755 14.5039 24.689L20.6011 18.6204L21.2003 19.1625L23.3881 21.141Z" fill="url(#paint3_linear_156_18)"/>
<defs>
<filter id="filter0_d_156_18" x="0" y="0" width="44" height="44" filterUnits="userSpaceOnUse" color-interpolation-filters="sRGB">
<feFlood flood-opacity="0" result="BackgroundImageFix"/>
<feColorMatrix in="SourceAlpha" type="matrix" values="0 0 0 0 0 0 0 0 0 0 0 0 0 0 0 0 0 0 127 0" result="hardAlpha"/>
<feOffset dx="3" dy="3"/>
<feGaussianBlur stdDeviation="5"/>
<feComposite in2="hardAlpha" operator="out"/>
<feColorMatrix type="matrix" values="0 0 0 0 0 0 0 0 0 0 0 0 0 0 0 0 0 0 0.1 0"/>
<feBlend mode="normal" in2="BackgroundImageFix" result="effect1_dropShadow_156_18"/>
<feBlend mode="normal" in="SourceGraphic" in2="effect1_dropShadow_156_18" result="shape"/>
</filter>
<linearGradient id="paint0_linear_156_18" x1="17.3479" y1="24.2364" x2="17.3479" y2="13.3928" gradientUnits="userSpaceOnUse">
<stop stop-color="#00E4FF"/>
<stop offset="0.99" stop-color="#00CCFF"/>
</linearGradient>
<linearGradient id="paint1_linear_156_18" x1="20.6281" y1="18.7441" x2="25.9263" y2="18.7441" gradientUnits="userSpaceOnUse">
<stop offset="0.01" stop-color="#FFBC00"/>
<stop offset="1" stop-color="#FFE100"/>
</linearGradient>
<linearGradient id="paint2_linear_156_18" x1="18.7162" y1="18.6204" x2="18.7162" y2="12.5898" gradientUnits="userSpaceOnUse">
<stop stop-color="#00F055"/>
<stop offset="0.99" stop-color="#00E05A"/>
</linearGradient>
<linearGradient id="paint3_linear_156_18" x1="18.946" y1="25.1455" x2="18.946" y2="18.6204" gradientUnits="userSpaceOnUse">
<stop offset="0.01" stop-color="#DE1646"/>
<stop offset="1" stop-color="#FF2B43"/>
</linearGradient>
</defs>
</svg>
