<svg width="119" height="14" viewBox="0 0 119 14" fill="none" xmlns="http://www.w3.org/2000/svg">
<path d="M76.3588 7.63168H80.7884V8.65622H76.3588V7.63168ZM2.696 1.41412L2.29971 11.7026V11.881C2.29971 12.7531 2.55726 12.9317 3.94472 13.0308V13.5065C2.93382 13.4275 2.53753 13.4074 1.98233 13.4074C1.42735 13.4074 1.03105 13.4275 0 13.5065V13.0308C1.38746 12.9317 1.58603 12.7733 1.62549 11.7026L2.04194 1.96974V1.85072C2.04194 0.93869 1.76424 0.74033 0.396508 0.661197V0.165824C1.16958 0.225017 1.46702 0.245168 2.022 0.245168C2.75562 0.245168 3.15191 0.225017 3.90526 0.145673L7.59243 10.1763L11.339 0.145673C12.2311 0.225017 12.6473 0.245168 13.2422 0.245168C13.7376 0.245168 14.0547 0.225017 14.8081 0.165614V0.661197C13.4601 0.74054 13.1629 0.938689 13.1629 1.8312V1.96974L13.3809 11.7028C13.4009 12.7733 13.5791 12.932 15.0064 13.031V13.5069C13.7575 13.3879 13.2819 13.3482 12.5285 13.3482C11.7754 13.3482 11.2995 13.3879 10.0508 13.5069V13.0308C11.3984 12.9517 11.6958 12.7334 11.6958 11.8014V11.7023L11.5174 1.43385L8.2467 10.275L8.00888 10.9293L7.73117 11.6629L7.47341 12.416L7.25532 13.0703H6.95831L6.74043 12.4357L6.46273 11.6629L6.18502 10.8898L5.9472 10.1957L2.696 1.41412ZM17.582 7.81723C17.7805 5.53768 18.5337 4.36789 19.8023 4.36789C21.0907 4.36789 21.7452 5.47828 21.864 7.81723H17.582ZM20.1587 13.0107C18.3552 13.0107 17.5622 11.6232 17.5425 8.5307H23.4496C23.4097 5.47786 22.161 3.85194 19.8218 3.85194C17.443 3.85194 15.9563 5.77466 15.9563 8.82813C15.9563 11.881 17.4432 13.6656 20.0005 13.6656C21.9433 13.6656 23.212 12.4559 23.4698 10.4142H22.6767C22.4389 12.0991 21.5666 13.0109 20.1592 13.0109M24.6297 4.58598V4.22914C25.7598 4.13007 26.4336 4.01105 27.2466 3.77323C27.3456 4.50663 27.3853 4.8238 27.425 5.41887V5.63654C27.8612 4.50663 28.7134 3.85236 29.7444 3.85236C30.7354 3.85236 31.469 4.50663 31.469 5.45813C31.469 6.03326 31.1321 6.40983 30.6363 6.40983C30.1804 6.40983 29.8235 6.13213 29.8235 5.73604C29.8235 5.69616 29.8435 5.61702 29.863 5.53747L29.9029 5.33932V5.1609C29.9029 4.8832 29.6649 4.68505 29.308 4.68505C28.2774 4.68505 27.6233 5.93398 27.6233 7.89658V12.0397C27.6233 12.8919 27.8215 13.0506 29.0309 13.11V13.5067C27.9403 13.4074 27.5243 13.3877 26.8303 13.3877C26.1166 13.3877 25.7002 13.4074 24.61 13.5065V13.11C25.8192 13.0506 26.0373 12.8919 26.0373 12.0397V5.55783C26.0176 4.7052 25.9183 4.60613 24.8874 4.5864L24.6297 4.58598ZM39.0522 3.67415V6.94466H38.6156C38.2587 5.2201 37.5258 4.38741 36.3163 4.38741C34.8297 4.38741 33.957 5.99317 33.957 8.82792C33.957 11.6035 34.7307 13.0109 36.2567 13.0109C37.4859 13.0109 38.2193 12.1385 38.4573 10.394H39.2701C39.0123 12.5155 37.8826 13.6656 36.0984 13.6656C33.7989 13.6656 32.233 11.7227 32.233 8.82813C32.233 5.87478 33.8188 3.85236 36.1576 3.85236C37.0102 3.85236 37.5451 4.07066 38.1798 4.68526L38.7151 3.67436L39.0522 3.67415ZM42.3076 7.81723C42.5057 5.53768 43.2589 4.36789 44.5277 4.36789C45.8163 4.36789 46.47 5.47828 46.5892 7.81723H42.3076ZM44.8846 13.0109C43.0804 13.0109 42.2874 11.6234 42.2677 8.53091H48.1752C48.1355 5.47807 46.8868 3.85236 44.5477 3.85236C42.1686 3.85236 40.6819 5.77508 40.6819 8.82855C40.6819 11.881 42.1686 13.6656 44.7259 13.6656C46.6687 13.6656 47.9374 12.4559 48.1952 10.4142H47.4019C47.1641 12.0991 46.292 13.0109 44.8846 13.0109ZM53.6652 13.1299C52.2379 13.1299 51.4843 11.6429 51.4843 8.80798C51.4843 5.93377 52.1785 4.52636 53.6054 4.52636C55.0724 4.52636 55.8258 6.03305 55.8258 8.94715C55.8258 11.7026 55.0926 13.1295 53.6652 13.1295M57.3917 11.4448V0C56.4005 0.264269 55.5084 0.422536 54.3984 0.541762V0.878867C55.6474 0.878867 55.8056 1.01761 55.8056 2.04845V5.51774C55.0724 4.32821 54.4975 3.97075 53.427 3.97075C51.3059 3.97075 49.8196 5.97323 49.8196 8.82792C49.8196 11.6826 51.3255 13.6843 53.4864 13.6843C54.6163 13.6843 55.3896 13.1694 55.9444 12.0588C56.0237 12.8119 56.0237 12.8912 56.2219 13.6446C57.0346 13.387 57.3715 13.3077 58.5413 13.1691L58.8387 13.1293V12.7924C57.5105 12.7529 57.3917 12.6538 57.3917 11.4442M61.2153 7.81702C61.4134 5.53747 62.167 4.36768 63.4356 4.36768C64.724 4.36768 65.3781 5.47807 65.4969 7.81702H61.2153ZM63.7925 13.0107C61.9883 13.0107 61.1955 11.6232 61.1756 8.5307H67.0831C67.0433 5.47786 65.7945 3.85215 63.4554 3.85215C61.0765 3.85215 59.5896 5.77487 59.5896 8.82834C59.5896 11.8808 61.0765 13.6654 63.6338 13.6654C65.5762 13.6654 66.8449 12.4557 67.1027 10.414H66.3099C66.0722 12.0989 65.1999 13.0107 63.7925 13.0107ZM68.7657 13.6849V10.3743L69.2015 10.3546C69.5585 12.1587 70.3908 13.0308 71.7791 13.0308C72.9483 13.0308 73.8204 12.2577 73.8204 11.2466C73.8204 10.5726 73.4441 10.1167 72.4726 9.68034L71.7191 9.34365L70.8072 8.92721C69.3604 8.25341 68.9043 7.69843 68.9043 6.54837C68.9043 4.98248 70.133 3.91198 71.8778 3.91198C72.651 3.91198 73.2258 4.09039 73.9 4.54609L74.2369 3.73377H74.5937V6.80592H74.1376C73.9592 5.2201 73.3051 4.46696 72.0564 4.46696C71.0058 4.46696 70.1926 5.18042 70.1926 6.1124C70.1926 6.90499 70.4899 7.16296 72.2946 7.95556L73.1267 8.31261C74.6332 8.96667 75.1686 9.601 75.1686 10.7708C75.1686 12.4357 73.8406 13.6253 71.9768 13.6253C71.065 13.6253 70.3513 13.3872 69.598 12.7926L69.1226 13.6851L68.7657 13.6849ZM86.1919 6.84559C87.2423 6.84559 87.8369 7.02401 88.2929 7.47992C88.7484 7.93583 89.0065 8.78825 89.0065 9.74016C89.0065 11.7221 88.0149 12.8325 86.2509 12.8325H85.5372C84.4867 12.8325 84.308 12.6738 84.308 11.8016V6.8458L86.1919 6.84559ZM84.3083 0.838775H85.9931C87.6583 0.838775 88.3917 1.65152 88.3917 3.49532C88.3917 4.40714 88.1738 5.06141 87.7377 5.57672C87.3015 6.07209 86.7664 6.23078 85.6563 6.23078H84.308L84.3083 0.838775ZM90.1562 3.45564C90.1562 2.4246 89.72 1.51299 88.9669 0.93785C88.2929 0.442267 87.5198 0.224177 86.231 0.224177H81.0174V0.71955C82.4447 0.799103 82.6429 0.958001 82.6429 2.0283V11.6429C82.6429 12.7134 82.4844 12.852 81.0174 12.9712V13.4471H86.0326C87.4998 13.4471 88.2929 13.2684 89.1251 12.7529C90.1165 12.1188 90.7708 10.9093 90.7708 9.6604C90.7708 8.5901 90.3147 7.61867 89.5414 7.02401C89.1251 6.70705 88.6891 6.52864 87.9755 6.38947C89.4028 5.85421 90.1564 4.84353 90.1564 3.45585M94.0064 7.81702C94.2052 5.53747 94.9579 4.36768 96.2266 4.36768C97.5152 4.36768 98.1695 5.47807 98.2885 7.81702H94.0064ZM96.5841 13.0107C94.7795 13.0107 93.9869 11.6232 93.9666 8.5307H99.8741C99.8344 5.47786 98.5857 3.85215 96.2469 3.85215C93.8681 3.85215 92.3809 5.77487 92.3809 8.82834C92.3809 11.8808 93.8679 13.6654 96.4252 13.6654C98.3676 13.6654 99.6363 12.4557 99.894 10.414H99.1012C98.8632 12.0989 97.9908 13.0107 96.5838 13.0107M100.924 4.6649V4.32821C102.073 4.16974 102.747 4.01126 103.54 3.73335C103.64 4.18968 103.699 4.70478 103.739 5.45792C104.452 4.38741 105.265 3.91198 106.415 3.91198C107.604 3.91198 108.635 4.52657 109.031 5.4978C109.229 5.97344 109.329 6.52843 109.329 7.28198V12.0397C109.329 12.8919 109.527 13.0506 110.736 13.11V13.5067C109.686 13.4074 109.289 13.3877 108.576 13.3877C107.842 13.3877 107.446 13.4074 106.415 13.5065V13.11C107.485 13.0701 107.743 12.8721 107.743 12.0793V7.22216C107.743 5.4978 107.227 4.80407 105.959 4.80407C104.611 4.80407 103.898 5.65628 103.898 7.28198V12.0791C103.898 12.8721 104.155 13.0703 105.185 13.11V13.5067C104.155 13.4074 103.758 13.3877 103.044 13.3877C102.351 13.3877 101.935 13.4074 100.903 13.5065V13.11C102.113 13.0506 102.311 12.8919 102.311 12.0394V5.6166C102.291 4.80386 102.173 4.68505 101.181 4.68505C101.122 4.68505 101.023 4.66532 100.924 4.66532M111.507 13.4473L116.879 4.6055H114.441C113.152 4.6055 112.835 4.8832 112.121 6.66738H111.725L112.181 4.09018H119L113.608 12.9313H115.928C117.275 12.9313 117.831 12.3963 118.425 10.5926H118.842L118.326 13.4473H111.507Z" fill="#222222"/>
</svg>
