<svg width="25" height="16" viewBox="0 0 25 16" fill="none" xmlns="http://www.w3.org/2000/svg">
<path d="M0.181641 8.6657L0.321403 8.1441L0.564816 8.20932C0.727092 8.25281 0.875225 8.27179 1.00922 8.26628C1.15094 8.26285 1.27596 8.21352 1.38429 8.11832C1.49263 8.02311 1.57785 7.8596 1.63997 7.62778L3.15251 1.98291C3.21255 1.75881 3.21457 1.58128 3.15855 1.45032C3.11234 1.31371 3.02769 1.21235 2.9046 1.14624C2.79132 1.07447 2.6574 1.01788 2.50285 0.976471L2.25944 0.911249L2.3992 0.389648L5.58676 1.24375C6.6145 1.51913 7.33783 1.89516 7.75673 2.37182C8.17771 2.84076 8.29191 3.43455 8.09935 4.1532C8.00825 4.4932 7.86878 4.76642 7.68096 4.97284C7.4952 5.17153 7.27447 5.3153 7.01876 5.40414C6.76306 5.49299 6.47982 5.54547 6.16906 5.56159L6.15353 5.61954C6.49036 5.78434 6.77019 5.99183 6.99302 6.24203C7.21793 6.4845 7.36549 6.76837 7.4357 7.09362C7.51364 7.42095 7.49877 7.78552 7.3911 8.18735C7.19026 8.93691 6.78411 9.43268 6.17264 9.67467C5.56324 9.90892 4.74467 9.88836 3.71693 9.61298L0.181641 8.6657ZM3.82358 8.98312C4.44178 9.14877 4.9115 9.14211 5.23276 8.96316C5.5561 8.77649 5.79955 8.37792 5.96312 7.76745C6.06872 7.37335 6.10546 7.03534 6.07333 6.75342C6.04327 6.46377 5.92117 6.224 5.70702 6.03411C5.5006 5.84628 5.18489 5.69543 4.75988 5.58155L3.70509 5.29892L2.79197 8.7067L3.82358 8.98312ZM4.57675 4.87404C5.00176 4.98792 5.34853 5.02286 5.61707 4.97887C5.89334 4.93694 6.11172 4.81739 6.27222 4.62021C6.43479 4.41531 6.56474 4.13126 6.66206 3.76807C6.81321 3.20397 6.78923 2.78344 6.59013 2.50647C6.39103 2.2295 5.98239 2.0082 5.36419 1.84255L4.68032 1.65931L3.8697 4.68459L4.57675 4.87404Z" fill="#FBBF24"/>
<path d="M10.7701 11.6271C9.8892 11.3911 9.27986 10.9296 8.94211 10.2428C8.6121 9.55807 8.58167 8.71342 8.85084 7.70885C9.14279 6.61929 9.59409 5.8623 10.2047 5.43789C10.8154 5.01347 11.5419 4.91411 12.3842 5.1398C13.1569 5.34686 13.7003 5.74508 14.0145 6.33448C14.3385 6.91821 14.3772 7.66986 14.1308 8.58942L13.9849 9.1342L10.1482 8.10618C10.0167 8.65896 9.96508 9.12965 9.99347 9.51824C10.0317 9.90117 10.1488 10.2059 10.3449 10.4323C10.5487 10.6609 10.8283 10.8228 11.1837 10.918C11.4542 10.9905 11.7041 11.016 11.9335 10.9947C12.1726 10.9676 12.386 10.913 12.5737 10.8308C12.7712 10.7429 12.9359 10.638 13.068 10.516C13.1293 10.5655 13.1727 10.6351 13.1984 10.7248C13.224 10.8145 13.2224 10.9135 13.1934 11.0217C13.1478 11.1917 13.0229 11.3487 12.8187 11.4927C12.6243 11.6311 12.3521 11.7197 12.0021 11.7584C11.6599 11.7993 11.2492 11.7555 10.7701 11.6271ZM12.8289 8.11634C12.9366 7.71452 12.9922 7.35257 12.9956 7.03049C12.9991 6.70842 12.9376 6.44347 12.8111 6.23564C12.6866 6.02008 12.4814 5.874 12.1955 5.79739C11.9328 5.72699 11.6841 5.74318 11.4495 5.84597C11.2227 5.95082 11.0148 6.13944 10.8258 6.41182C10.6467 6.67855 10.4876 7.02517 10.3484 7.45169L12.8289 8.11634Z" fill="#FBBF24"/>
<path d="M16.4952 13.1611C15.9234 13.0079 15.5336 12.7627 15.3258 12.4254C15.1201 12.0804 15.1073 11.5718 15.2874 10.8995L16.3124 7.07442L15.443 6.84148L15.5766 6.34306C15.7388 6.38654 15.9182 6.39732 16.1145 6.3754C16.3109 6.35347 16.4885 6.29339 16.6473 6.19516C16.8139 6.09899 16.9656 5.9657 17.1023 5.79529C17.2412 5.61716 17.3759 5.39238 17.5066 5.12096L18.1557 5.29488L17.7737 6.72059L19.2806 7.12435L19.0942 7.81981L17.5874 7.41606L16.5625 11.2411C16.461 11.6198 16.4599 11.9176 16.5591 12.1347C16.666 12.3538 16.8547 12.4996 17.1251 12.5721C17.2642 12.6094 17.3938 12.6358 17.5139 12.6514C17.6416 12.6691 17.7705 12.6829 17.9003 12.6929L17.745 13.2724C17.6321 13.2919 17.4574 13.2947 17.2209 13.2811C16.9844 13.2674 16.7425 13.2274 16.4952 13.1611Z" fill="#FBBF24"/>
<path d="M20.3225 14.1867C19.9825 14.0955 19.691 13.947 19.448 13.7411C19.2148 13.5296 19.0572 13.2679 18.9751 12.956C18.8951 12.6364 18.912 12.2641 19.0259 11.8391C19.1915 11.2209 19.5301 10.8229 20.0415 10.6453C20.555 10.4598 21.2602 10.4707 22.1571 10.6779L23.1169 10.8978L23.297 10.2256C23.3716 9.94737 23.4136 9.69774 23.4231 9.47668C23.4404 9.25769 23.395 9.0716 23.287 8.91842C23.181 8.75751 22.9851 8.63875 22.6992 8.56214C22.4287 8.48967 22.2056 8.48786 22.0298 8.5567C21.8617 8.62761 21.7247 8.75242 21.6189 8.93111C21.5228 9.10414 21.4417 9.3143 21.3754 9.56158C21.0045 9.46219 20.7369 9.33252 20.5727 9.17257C20.4106 9.0049 20.3658 8.78583 20.4382 8.51537C20.5128 8.23719 20.6684 8.04284 20.9051 7.93233C21.1494 7.82388 21.4443 7.77451 21.7895 7.7842C22.1425 7.79596 22.5161 7.85464 22.9102 7.96023C23.6443 8.15694 24.1525 8.45463 24.435 8.85332C24.7251 9.25407 24.7729 9.81764 24.5783 10.544L23.777 13.5345C23.719 13.7509 23.6966 13.9271 23.7098 14.0632C23.7252 14.1915 23.7797 14.2972 23.8733 14.3803C23.9691 14.4556 24.102 14.5161 24.272 14.5616L24.3068 14.571L24.167 15.0926L22.4399 14.6298L22.4944 13.6381L22.3901 13.6102C22.1719 13.7753 21.9638 13.9183 21.7658 14.0392C21.5699 14.1523 21.359 14.2283 21.1332 14.2672C20.9095 14.2984 20.6393 14.2715 20.3225 14.1867ZM20.8953 13.5326C21.1889 13.6113 21.4566 13.6168 21.6984 13.549C21.9422 13.4736 22.1542 13.3316 22.3343 13.1231C22.5144 12.9146 22.6469 12.652 22.7318 12.3351L22.9771 11.4194L22.2839 11.271C21.878 11.1788 21.5435 11.1595 21.2807 11.2133C21.0199 11.2594 20.8123 11.3694 20.658 11.5434C20.5114 11.7195 20.3988 11.9544 20.3201 12.248C20.258 12.4798 20.2361 12.6851 20.2545 12.864C20.2749 13.0351 20.3366 13.1759 20.4395 13.2863C20.5501 13.3987 20.7021 13.4809 20.8953 13.5326Z" fill="#FBBF24"/>
</svg>
