<svg width="22" height="15" viewBox="0 0 22 15" fill="none" xmlns="http://www.w3.org/2000/svg">
<path d="M0.181641 9.09124L0.321403 8.56964L0.564816 8.63486C0.727092 8.67834 0.875225 8.69733 1.00922 8.69182C1.15094 8.68838 1.27596 8.63906 1.38429 8.54386C1.49263 8.44865 1.57785 8.28514 1.63997 8.05331L3.15561 2.39685C3.21566 2.17276 3.21767 1.99523 3.16166 1.86427C3.11337 1.73538 3.02769 1.63788 2.9046 1.57177C2.79132 1.50001 2.6574 1.44342 2.50285 1.40201L2.25944 1.33679L2.3992 0.815186L5.94608 1.76557L5.80632 2.28717L5.56291 2.22195C5.40836 2.18054 5.26022 2.16155 5.11851 2.16499C4.97679 2.16842 4.85176 2.21775 4.74343 2.31295C4.63717 2.40043 4.55194 2.56394 4.48776 2.80349L3.86659 5.12172L7.43665 6.07831L8.05782 3.76009C8.12201 3.52054 8.12996 3.33632 8.08167 3.20743C8.03545 3.07081 7.95184 2.96559 7.83083 2.89175C7.71754 2.81998 7.57976 2.76236 7.41748 2.71888L7.17407 2.65366L7.31383 2.13206L10.8607 3.08244L10.721 3.60404L10.4775 3.53882C10.323 3.49741 10.1749 3.47842 10.0331 3.48186C9.89142 3.4853 9.76639 3.53462 9.65806 3.62982C9.5518 3.7173 9.46657 3.88081 9.40239 4.12036L7.88364 9.78842C7.82566 10.0048 7.82082 10.1774 7.8691 10.3063C7.92512 10.4373 8.00977 10.5386 8.12305 10.6104C8.24614 10.6765 8.38495 10.7303 8.5395 10.7717L8.78291 10.8369L8.64315 11.3585L5.09627 10.4081L5.23603 9.88651L5.47945 9.95173C5.64172 9.99521 5.78986 10.0142 5.92385 10.0087C6.06557 10.0053 6.19059 9.95593 6.29892 9.86073C6.40726 9.76552 6.49248 9.60201 6.5546 9.37019L7.27204 6.69264L3.70198 5.73604L2.98454 8.41359C2.92242 8.64541 2.91447 8.82963 2.96068 8.96625C3.0069 9.10287 3.09051 9.20809 3.21153 9.28193C3.33254 9.35576 3.47032 9.41339 3.62487 9.4548L3.86828 9.52002L3.72852 10.0416L0.181641 9.09124Z" fill="#D50527"/>
<path d="M12.4001 12.4894C11.5424 12.2596 10.9377 11.8118 10.586 11.1461C10.2343 10.4804 10.2044 9.60276 10.4964 8.51319C10.7883 7.42363 11.2404 6.67926 11.8525 6.2801C12.4668 5.87322 13.2376 5.79401 14.1648 6.04247C15.0226 6.2723 15.6273 6.72007 15.979 7.38578C16.3327 8.04376 16.3636 8.91753 16.0717 10.0071C15.7797 11.0967 15.3228 11.8439 14.7008 12.2487C14.0866 12.6556 13.3197 12.7358 12.4001 12.4894ZM12.5941 11.8581C12.9573 11.9554 13.273 11.9365 13.5411 11.8013C13.8092 11.6661 14.0414 11.4177 14.2377 11.0562C14.436 10.6869 14.6108 10.2202 14.7619 9.65614C14.9151 9.08431 14.9922 8.59561 14.9932 8.19005C15.002 7.78656 14.924 7.45924 14.7594 7.20808C14.5948 6.95692 14.3309 6.78268 13.9677 6.68536C13.6045 6.58805 13.2889 6.60699 13.0208 6.7422C12.7526 6.87741 12.5215 7.12192 12.3273 7.47571C12.1331 7.82951 11.9594 8.29232 11.8062 8.86415C11.655 9.42825 11.573 9.91977 11.5601 10.3387C11.5571 10.752 11.6378 11.0842 11.8024 11.3354C11.967 11.5865 12.2309 11.7608 12.5941 11.8581Z" fill="#D50527"/>
<path d="M18.612 14.1539C18.0401 14.0006 17.6503 13.7554 17.4425 13.4181C17.2368 13.0731 17.224 12.5645 17.4042 11.8922L18.4291 8.06713L17.5598 7.83419L17.6933 7.33577C17.8556 7.37926 18.0349 7.39004 18.2313 7.36811C18.4276 7.34619 18.6052 7.28611 18.7641 7.18787C18.9306 7.0917 19.0823 6.95842 19.2191 6.78801C19.3579 6.60987 19.4927 6.38509 19.6234 6.11367L20.2725 6.2876L19.8905 7.7133L21.3973 8.11706L21.211 8.81253L19.7041 8.40877L18.6792 12.2338C18.5777 12.6125 18.5766 12.9103 18.6758 13.1274C18.7827 13.3465 18.9714 13.4924 19.2419 13.5648C19.381 13.6021 19.5105 13.6285 19.6306 13.6441C19.7584 13.6618 19.8872 13.6756 20.017 13.6856L19.8617 14.2651C19.7489 14.2846 19.5742 14.2875 19.3377 14.2738C19.1011 14.2601 18.8592 14.2201 18.612 14.1539Z" fill="#D50527"/>
</svg>
